<svg width="380" height="96" viewBox="0 0 380 96" fill="none" xmlns="http://www.w3.org/2000/svg">
<path d="M0 48C0 21.4904 21.0503 0 47.0169 0C72.9836 0 94.0338 21.4904 94.0338 48C94.0338 74.5096 72.9836 96 47.0169 96C21.0503 96 0 74.5096 0 48ZM4.37367 48C4.37367 72.0051 23.5035 91.5349 47.0169 91.5349C70.5303 91.5349 89.6601 72.0051 89.6601 48C89.6601 23.9949 70.5303 4.46512 47.0169 4.46512C23.5035 4.46512 4.37367 23.9949 4.37367 48ZM25.6456 76.596C22.5274 76.5362 20.3773 74.4051 19.5592 72.7053C18.7412 71.0055 18.7243 68.7983 19.5075 67.1239C20.2908 65.4495 35.3472 34.4189 35.8432 33.3524C36.3392 32.2858 36.2875 32.3437 36.2945 31.1554C36.3014 29.967 36.2945 17.3744 36.2945 17.3744C36.2945 17.3744 35.0957 17.3744 34.376 17.3744C32.6365 17.3744 31.8631 16.0846 31.8542 15.0403C31.8453 14.0255 32.5351 12.6556 34.2876 12.6515C35.7786 12.6515 38.3908 12.6515 40.9186 12.6515L40.8987 19.8759H46.2217V22.2383H40.8997V24.6596H46.2217V27.0109H40.8997V33.0825C40.8997 33.6913 40.8172 33.7106 40.52 34.352C40.2228 34.9933 24.3385 67.8129 23.8375 68.9049C23.3365 69.9968 24.3454 71.8366 25.8414 71.865C27.3374 71.8934 66.3008 71.8478 68.2014 71.8478C70.1019 71.8478 70.6228 69.5391 70.249 68.7902C69.8753 68.0413 53.645 34.6047 53.3627 33.9663C53.0804 33.328 53.1162 33.3828 53.1301 32.3427C53.144 31.3025 53.1301 12.6556 53.1301 12.6556H59.9152C60.5168 12.6498 61.0961 12.8882 61.5255 13.3184C61.9549 13.7486 62.1993 14.3353 62.205 14.9495C62.2106 15.5637 61.9771 16.155 61.5557 16.5934C61.1343 17.0318 60.5596 17.2813 59.958 17.2871H59.9152C59.294 17.3003 57.7374 17.2871 57.7374 17.2871C57.7374 17.2871 57.7374 31.0518 57.7374 31.8282C57.7374 32.6045 57.9511 32.778 58.4481 33.803C58.9451 34.8279 73.2698 64.3017 74.244 66.2968C75.2181 68.2919 75.5591 71.1598 73.8165 73.5435C72.074 75.9273 70.0154 76.4976 68.3773 76.5159C67.0433 76.527 41.6383 76.6173 30.5461 76.6173C28.0103 76.6112 26.2251 76.6072 25.6456 76.596ZM45.3271 64.8457C45.3271 64.5245 45.4204 64.2106 45.5951 63.9436C45.7699 63.6766 46.0183 63.4685 46.3089 63.3456C46.5995 63.2227 46.9193 63.1905 47.2278 63.2532C47.5363 63.3158 47.8197 63.4705 48.0421 63.6976C48.2645 63.9246 48.416 64.2139 48.4774 64.5289C48.5387 64.8439 48.5072 65.1703 48.3869 65.467C48.2665 65.7637 48.0626 66.0173 47.8011 66.1957C47.5396 66.3741 47.2321 66.4693 46.9175 66.4693C46.4957 66.4693 46.0912 66.2983 45.7929 65.9938C45.4946 65.6893 45.3271 65.2763 45.3271 64.8457ZM50.0576 64.5057C49.9793 64.4278 49.9298 64.3246 49.9176 64.2137C49.9054 64.1027 49.9312 63.9909 49.9907 63.8972C50.0501 63.8035 50.1395 63.7337 50.2437 63.6997C50.3478 63.6657 50.4603 63.6695 50.562 63.7106C50.6636 63.7517 50.7482 63.8275 50.8014 63.9251C50.8545 64.0227 50.8729 64.136 50.8534 64.2459C50.8339 64.3557 50.7777 64.4553 50.6944 64.5276C50.6112 64.6 50.5059 64.6406 50.3966 64.6427C50.3339 64.6442 50.2717 64.6329 50.2135 64.6094C50.1552 64.5858 50.1022 64.5506 50.0576 64.5057V64.5057ZM43.1343 64.5057C43.0565 64.427 43.0079 64.3231 42.9967 64.2118C42.9856 64.1005 43.0126 63.9888 43.0732 63.8956C43.1338 63.8024 43.2242 63.7336 43.329 63.7008C43.4337 63.6681 43.5464 63.6735 43.6477 63.7161C43.749 63.7587 43.8326 63.8358 43.8844 63.9344C43.9362 64.033 43.9529 64.1468 43.9316 64.2566C43.9103 64.3663 43.8524 64.4651 43.7677 64.536C43.683 64.607 43.5768 64.6458 43.4673 64.6458C43.3425 64.6459 43.2227 64.5956 43.1343 64.5057V64.5057ZM52.144 63.2271C51.9149 63.0071 51.7548 62.7228 51.684 62.41C51.6131 62.0972 51.6347 61.77 51.746 61.4697C51.8572 61.1694 52.0532 60.9096 52.3091 60.723C52.565 60.5363 52.8693 60.4314 53.1836 60.4213C53.498 60.4112 53.8082 60.4965 54.075 60.6664C54.3419 60.8363 54.5534 61.0831 54.6829 61.3756C54.8124 61.6682 54.854 61.9934 54.8025 62.3101C54.751 62.6268 54.6086 62.9209 54.3935 63.155L54.3587 63.1915C54.2095 63.3451 54.0321 63.4671 53.8366 63.5505C53.6411 63.6339 53.4314 63.6771 53.2196 63.6776C53.02 63.6786 52.8223 63.6394 52.6377 63.562C52.4531 63.4847 52.2854 63.3709 52.144 63.2271V63.2271ZM39.5757 63.1915C39.3685 62.9661 39.2309 62.6834 39.18 62.3786C39.1292 62.0738 39.1674 61.7605 39.2899 61.4778C39.4124 61.1951 39.6137 60.9554 39.8688 60.7888C40.1238 60.6221 40.4213 60.5358 40.7241 60.5407C41.0269 60.5455 41.3216 60.6413 41.5714 60.8161C41.8212 60.9908 42.015 61.2368 42.1288 61.5233C42.2425 61.8099 42.271 62.1242 42.2109 62.4272C42.1507 62.7302 42.0044 63.0084 41.7904 63.2271C41.6492 63.3711 41.4815 63.4851 41.2969 63.5624C41.1122 63.6398 40.9144 63.6789 40.7149 63.6776C40.503 63.6772 40.2933 63.634 40.0978 63.5506C39.9023 63.4672 39.7249 63.3452 39.5757 63.1915V63.1915ZM46.4791 62.2397C46.4791 62.1443 46.5069 62.051 46.5588 61.9718C46.6107 61.8925 46.6845 61.8307 46.7708 61.7942C46.8572 61.7578 46.9522 61.7483 47.0438 61.767C47.1354 61.7857 47.2195 61.8317 47.2855 61.8992C47.3515 61.9667 47.3964 62.0527 47.4145 62.1462C47.4326 62.2398 47.4231 62.3368 47.3872 62.4248C47.3513 62.5129 47.2907 62.5881 47.2129 62.641C47.1351 62.6938 47.0437 62.7219 46.9503 62.7217C46.8883 62.7217 46.827 62.7092 46.7698 62.685C46.7125 62.6607 46.6606 62.6252 46.6168 62.5804C46.573 62.5357 46.5383 62.4825 46.5147 62.424C46.4911 62.3656 46.479 62.3029 46.4791 62.2397ZM46.4791 60.8829C46.4789 60.7875 46.5065 60.6941 46.5583 60.6147C46.6101 60.5353 46.6838 60.4733 46.7702 60.4367C46.8565 60.4001 46.9515 60.3905 47.0432 60.409C47.1349 60.4276 47.2191 60.4735 47.2852 60.541C47.3513 60.6085 47.3962 60.6945 47.4144 60.7881C47.4326 60.8817 47.4232 60.9787 47.3873 61.0668C47.3515 61.1549 47.2908 61.2302 47.213 61.2831C47.1352 61.336 47.0438 61.3641 46.9503 61.3639C46.8253 61.3639 46.7055 61.3132 46.6171 61.223C46.5288 61.1328 46.4791 61.0105 46.4791 60.8829ZM51.1749 60.6221C51.0981 60.5435 51.0504 60.4401 51.0398 60.3296C51.0293 60.2191 51.0566 60.1083 51.1171 60.0161C51.1776 59.9238 51.2676 59.8558 51.3717 59.8237C51.4758 59.7915 51.5875 59.7972 51.688 59.8398C51.7884 59.8823 51.8713 59.9591 51.9225 60.057C51.9738 60.155 51.9901 60.268 51.9689 60.3769C51.9477 60.4858 51.8901 60.5838 51.8061 60.6542C51.722 60.7246 51.6166 60.7631 51.5079 60.7631C51.446 60.7631 51.3847 60.7507 51.3276 60.7265C51.2705 60.7023 51.2186 60.6668 51.1749 60.6221V60.6221ZM42.0926 60.6221C42.0155 60.5434 41.9676 60.4398 41.957 60.3291C41.9463 60.2184 41.9736 60.1074 42.0341 60.0149C42.0947 59.9224 42.1848 59.8542 42.289 59.8218C42.3933 59.7895 42.5053 59.7951 42.606 59.8376C42.7067 59.8802 42.7898 59.957 42.8413 60.0551C42.8927 60.1532 42.9092 60.2664 42.8881 60.3755C42.8669 60.4847 42.8094 60.5829 42.7252 60.6536C42.6411 60.7243 42.5355 60.763 42.4265 60.7631C42.3645 60.7632 42.3031 60.7508 42.2458 60.7266C42.1885 60.7024 42.1364 60.6669 42.0926 60.6221V60.6221ZM46.4791 59.521C46.4791 59.4256 46.5069 59.3324 46.5588 59.2531C46.6107 59.1738 46.6845 59.112 46.7708 59.0756C46.8572 59.0391 46.9522 59.0296 47.0438 59.0483C47.1354 59.067 47.2195 59.113 47.2855 59.1805C47.3515 59.248 47.3964 59.334 47.4145 59.4276C47.4326 59.5212 47.4231 59.6181 47.3872 59.7062C47.3513 59.7942 47.2907 59.8695 47.2129 59.9223C47.1351 59.9751 47.0437 60.0032 46.9503 60.003C46.8883 60.003 46.827 59.9906 46.7698 59.9663C46.7125 59.9421 46.6606 59.9066 46.6168 59.8618C46.573 59.817 46.5383 59.7639 46.5147 59.7054C46.4911 59.6469 46.479 59.5843 46.4791 59.521V59.521ZM50.2345 59.6621C50.1575 59.5833 50.1096 59.4798 50.0989 59.369C50.0883 59.2583 50.1156 59.1472 50.1763 59.0547C50.2369 58.9622 50.327 58.894 50.4314 58.8617C50.5357 58.8295 50.6477 58.8352 50.7484 58.8778C50.8491 58.9205 50.9322 58.9975 50.9835 59.0956C51.0349 59.1938 51.0513 59.3071 51.0299 59.4163C51.0086 59.5254 50.9508 59.6236 50.8665 59.6942C50.7822 59.7647 50.6765 59.8032 50.5675 59.8031C50.4426 59.8029 50.3229 59.7522 50.2345 59.6621V59.6621ZM43.0329 59.6621C42.9559 59.5833 42.9079 59.4798 42.8973 59.369C42.8867 59.2583 42.914 59.1472 42.9746 59.0547C43.0352 58.9622 43.1254 58.894 43.2297 58.8617C43.3341 58.8295 43.4461 58.8352 43.5468 58.8778C43.6475 58.9205 43.7306 58.9975 43.7819 59.0956C43.8332 59.1938 43.8496 59.3071 43.8283 59.4163C43.8069 59.5254 43.7492 59.6236 43.6649 59.6942C43.5806 59.7647 43.4749 59.8032 43.3659 59.8031C43.241 59.8029 43.1213 59.7522 43.0329 59.6621ZM54.9611 59.4784C54.884 59.3997 54.8361 59.2961 54.8255 59.1853C54.8149 59.0746 54.8422 58.9635 54.9028 58.871C54.9634 58.7785 55.0536 58.7103 55.1579 58.6781C55.2622 58.6458 55.3743 58.6515 55.475 58.6941C55.5757 58.7368 55.6587 58.8138 55.7101 58.912C55.7614 59.0101 55.7778 59.1235 55.7565 59.2326C55.7351 59.3417 55.6774 59.4399 55.5931 59.5105C55.5087 59.581 55.4031 59.6195 55.2941 59.6195C55.1691 59.6194 55.0494 59.5686 54.9611 59.4784V59.4784ZM38.1404 59.4784C38.0633 59.3997 38.0154 59.2961 38.0048 59.1853C37.9941 59.0746 38.0215 58.9635 38.0821 58.871C38.1427 58.7785 38.2328 58.7103 38.3372 58.6781C38.4415 58.6458 38.5536 58.6515 38.6543 58.6941C38.7549 58.7368 38.838 58.8138 38.8894 58.912C38.9407 59.0101 38.9571 59.1235 38.9357 59.2326C38.9144 59.3417 38.8567 59.4399 38.7723 59.5105C38.688 59.581 38.5824 59.6195 38.4733 59.6195C38.4115 59.6195 38.3502 59.607 38.2931 59.5828C38.2359 59.5586 38.184 59.5231 38.1404 59.4784V59.4784ZM49.2892 58.699C49.2122 58.6203 49.1643 58.5167 49.1536 58.406C49.143 58.2952 49.1703 58.1841 49.2309 58.0916C49.2916 57.9991 49.3817 57.9309 49.486 57.8987C49.5904 57.8664 49.7024 57.8721 49.8031 57.9148C49.9038 57.9574 49.9869 58.0344 50.0382 58.1326C50.0896 58.2308 50.1059 58.3441 50.0846 58.4532C50.0633 58.5624 50.0055 58.6606 49.9212 58.7311C49.8369 58.8017 49.7312 58.8402 49.6222 58.8401C49.4973 58.84 49.3775 58.7893 49.2892 58.699V58.699ZM43.9742 58.699C43.8972 58.6203 43.8493 58.5167 43.8386 58.406C43.828 58.2952 43.8553 58.1841 43.9159 58.0916C43.9766 57.9991 44.0667 57.9309 44.171 57.8987C44.2754 57.8664 44.3874 57.8721 44.4881 57.9148C44.5888 57.9574 44.6719 58.0344 44.7232 58.1326C44.7746 58.2308 44.7909 58.3441 44.7696 58.4532C44.7483 58.5624 44.6905 58.6606 44.6062 58.7311C44.5219 58.8017 44.4162 58.8402 44.3072 58.8401C44.1823 58.84 44.0625 58.7893 43.9742 58.699V58.699ZM44.1343 55.6617C44.1343 55.0897 44.3004 54.5305 44.6117 54.0549C44.923 53.5793 45.3654 53.2086 45.8831 52.9897C46.4007 52.7708 46.9704 52.7135 47.5199 52.8251C48.0694 52.9367 48.5742 53.2122 48.9704 53.6167C49.3666 54.0211 49.6364 54.5365 49.7457 55.0975C49.855 55.6585 49.7989 56.24 49.5845 56.7685C49.3701 57.297 49.007 57.7487 48.5411 58.0665C48.0752 58.3843 47.5275 58.5539 46.9672 58.5539C46.2159 58.5539 45.4953 58.2492 44.964 57.7068C44.4327 57.1644 44.1343 56.4288 44.1343 55.6617V55.6617ZM54.3726 55.611C54.3726 55.2899 54.4659 54.9759 54.6407 54.7089C54.8154 54.4419 55.0638 54.2338 55.3544 54.1109C55.645 53.988 55.9648 53.9559 56.2733 54.0185C56.5818 54.0812 56.8652 54.2358 57.0876 54.4629C57.3101 54.69 57.4615 54.9793 57.5229 55.2942C57.5843 55.6092 57.5528 55.9357 57.4324 56.2323C57.312 56.529 57.1082 56.7826 56.8466 56.961C56.5851 57.1394 56.2776 57.2347 55.963 57.2347C55.5412 57.2347 55.1367 57.0636 54.8384 56.7591C54.5402 56.4546 54.3726 56.0416 54.3726 55.611ZM36.3809 55.611C36.3809 55.2899 36.4742 54.9759 36.649 54.7089C36.8237 54.4419 37.0721 54.2338 37.3627 54.1109C37.6534 53.988 37.9731 53.9559 38.2816 54.0185C38.5902 54.0812 38.8735 54.2358 39.096 54.4629C39.3184 54.69 39.4699 54.9793 39.5312 55.2942C39.5926 55.6092 39.5611 55.9357 39.4407 56.2323C39.3204 56.529 39.1165 56.7826 38.855 56.961C38.5934 57.1394 38.2859 57.2347 37.9714 57.2347C37.5496 57.2347 37.145 57.0636 36.8468 56.7591C36.5485 56.4546 36.3809 56.0416 36.3809 55.611ZM52.9174 55.6455C52.9174 55.5501 52.9451 55.4569 52.997 55.3776C53.0489 55.2983 53.1227 55.2365 53.2091 55.2001C53.2954 55.1636 53.3904 55.1541 53.482 55.1728C53.5736 55.1915 53.6578 55.2375 53.7238 55.305C53.7897 55.3725 53.8346 55.4585 53.8527 55.5521C53.8709 55.6457 53.8614 55.7426 53.8255 55.8307C53.7896 55.9187 53.7289 55.9939 53.6511 56.0468C53.5734 56.0996 53.482 56.1277 53.3885 56.1275C53.3266 56.1275 53.2652 56.1151 53.208 56.0908C53.1508 56.0666 53.0988 56.0311 53.055 55.9863C53.0113 55.9415 52.9766 55.8884 52.953 55.8299C52.9293 55.7714 52.9172 55.7088 52.9174 55.6455ZM51.5884 55.6455C51.5886 55.5504 51.6164 55.4575 51.6683 55.3785C51.7202 55.2996 51.7938 55.2381 51.8799 55.2018C51.966 55.1656 52.0607 55.1562 52.1521 55.1749C52.2434 55.1935 52.3273 55.2394 52.3931 55.3067C52.4589 55.3741 52.5036 55.4598 52.5217 55.553C52.5398 55.6463 52.5304 55.743 52.4947 55.8308C52.4591 55.9187 52.3987 55.9937 52.3212 56.0465C52.2437 56.0993 52.1527 56.1275 52.0595 56.1275C51.9976 56.1275 51.9362 56.1151 51.879 56.0908C51.8218 56.0666 51.7698 56.0311 51.726 55.9863C51.6823 55.9415 51.6476 55.8884 51.624 55.8299C51.6003 55.7714 51.5883 55.7088 51.5884 55.6455ZM50.2544 55.6455C50.2546 55.5504 50.2824 55.4575 50.3343 55.3785C50.3862 55.2996 50.4598 55.2381 50.546 55.2018C50.6321 55.1656 50.7268 55.1562 50.8181 55.1749C50.9094 55.1935 50.9933 55.2394 51.0591 55.3067C51.1249 55.3741 51.1697 55.4598 51.1878 55.553C51.2059 55.6463 51.1965 55.743 51.1608 55.8308C51.1251 55.9187 51.0647 55.9937 50.9872 56.0465C50.9098 56.0993 50.8187 56.1275 50.7256 56.1275C50.6636 56.1275 50.6023 56.1151 50.545 56.0908C50.4878 56.0666 50.4358 56.0311 50.3921 55.9863C50.3483 55.9415 50.3136 55.8884 50.29 55.8299C50.2664 55.7714 50.2543 55.7088 50.2544 55.6455ZM42.7367 55.6455C42.7367 55.5502 42.7644 55.457 42.8163 55.3777C42.8681 55.2984 42.9419 55.2366 43.0281 55.2002C43.1144 55.1637 43.2094 55.1541 43.3009 55.1727C43.3925 55.1913 43.4767 55.2372 43.5427 55.3047C43.6087 55.3721 43.6537 55.458 43.6719 55.5515C43.6901 55.645 43.6808 55.7419 43.6451 55.83C43.6093 55.918 43.5488 55.9933 43.4712 56.0463C43.3935 56.0993 43.3022 56.1275 43.2088 56.1275C43.0836 56.1275 42.9635 56.0767 42.875 55.9863C42.7864 55.8959 42.7367 55.7733 42.7367 55.6455V55.6455ZM41.4037 55.6455C41.4039 55.5504 41.4317 55.4575 41.4836 55.3785C41.5355 55.2996 41.6091 55.2381 41.6953 55.2018C41.7814 55.1656 41.8761 55.1562 41.9674 55.1749C42.0587 55.1935 42.1426 55.2394 42.2084 55.3067C42.2742 55.3741 42.319 55.4598 42.3371 55.553C42.3551 55.6463 42.3458 55.743 42.3101 55.8308C42.2744 55.9187 42.214 55.9937 42.1365 56.0465C42.0591 56.0993 41.968 56.1275 41.8749 56.1275C41.8129 56.1275 41.7516 56.1151 41.6943 56.0908C41.6371 56.0666 41.5851 56.0311 41.5414 55.9863C41.4976 55.9415 41.4629 55.8884 41.4393 55.8299C41.4157 55.7714 41.4036 55.7088 41.4037 55.6455ZM40.0737 55.6455C40.0737 55.5502 40.1014 55.457 40.1533 55.3777C40.2052 55.2984 40.2789 55.2366 40.3652 55.2002C40.4515 55.1637 40.5464 55.1541 40.638 55.1727C40.7296 55.1913 40.8137 55.2372 40.8797 55.3047C40.9458 55.3721 40.9907 55.458 41.009 55.5515C41.0272 55.645 41.0178 55.7419 40.9821 55.83C40.9463 55.918 40.8858 55.9933 40.8082 56.0463C40.7305 56.0993 40.6393 56.1275 40.5459 56.1275C40.4206 56.1275 40.3006 56.0767 40.212 55.9863C40.1235 55.8959 40.0737 55.7733 40.0737 55.6455V55.6455ZM49.2912 53.277C49.2142 53.1983 49.1663 53.0947 49.1556 52.984C49.145 52.8733 49.1723 52.7622 49.2328 52.6697C49.2933 52.5773 49.3834 52.509 49.4877 52.4767C49.5919 52.4444 49.704 52.45 49.8047 52.4925C49.9053 52.535 49.9885 52.6119 50.0399 52.71C50.0914 52.808 50.1079 52.9213 50.0867 53.0304C50.0656 53.1395 50.008 53.2378 49.9239 53.3085C49.8397 53.3792 49.7342 53.4179 49.6252 53.418C49.5632 53.418 49.5018 53.4056 49.4445 53.3814C49.3872 53.3572 49.3351 53.3217 49.2912 53.277V53.277ZM43.9762 53.277C43.8992 53.1982 43.8513 53.0947 43.8406 52.9839C43.83 52.8731 43.8573 52.762 43.9179 52.6695C43.9785 52.577 44.0687 52.5089 44.173 52.4766C44.2774 52.4444 44.3894 52.4501 44.4901 52.4927C44.5908 52.5354 44.6739 52.6123 44.7252 52.7105C44.7765 52.8087 44.7929 52.922 44.7716 53.0312C44.7503 53.1403 44.6925 53.2385 44.6082 53.309C44.5239 53.3796 44.4182 53.4181 44.3092 53.418C44.1843 53.4178 44.0646 53.3671 43.9762 53.277V53.277ZM54.9631 52.4337C54.8853 52.3549 54.8367 52.251 54.8255 52.1398C54.8144 52.0285 54.8414 51.9167 54.902 51.8235C54.9626 51.7303 55.053 51.6615 55.1577 51.6288C55.2625 51.596 55.3751 51.6014 55.4764 51.644C55.5777 51.6866 55.6614 51.7638 55.7132 51.8624C55.765 51.9609 55.7816 52.0748 55.7604 52.1845C55.7391 52.2942 55.6811 52.393 55.5965 52.464C55.5118 52.535 55.4056 52.5737 55.2961 52.5737C55.234 52.5733 55.1726 52.5604 55.1154 52.5356C55.0583 52.5109 55.0065 52.4749 54.9631 52.4296V52.4337ZM38.2417 52.4337C38.1639 52.3549 38.1153 52.251 38.1042 52.1398C38.0931 52.0285 38.1201 51.9167 38.1807 51.8235C38.2413 51.7303 38.3317 51.6615 38.4364 51.6288C38.5412 51.596 38.6538 51.6014 38.7551 51.644C38.8564 51.6866 38.9401 51.7638 38.9919 51.8624C39.0437 51.9609 39.0603 52.0748 39.039 52.1845C39.0177 52.2942 38.9598 52.393 38.8751 52.464C38.7905 52.535 38.6843 52.5737 38.5747 52.5737C38.5126 52.5735 38.4512 52.5606 38.394 52.5359C38.3369 52.5111 38.2851 52.475 38.2417 52.4296V52.4337ZM50.2345 52.3139C50.1575 52.2352 50.1096 52.1317 50.099 52.021C50.0883 51.9103 50.1156 51.7992 50.1761 51.7067C50.2367 51.6142 50.3267 51.546 50.431 51.5137C50.5353 51.4814 50.6473 51.4869 50.748 51.5295C50.8487 51.572 50.9318 51.6488 50.9832 51.7469C51.0347 51.845 51.0512 51.9582 51.0301 52.0674C51.0089 52.1765 50.9513 52.2748 50.8672 52.3454C50.783 52.4161 50.6775 52.4548 50.5685 52.455C50.5065 52.455 50.4451 52.4426 50.3878 52.4184C50.3305 52.3942 50.2784 52.3587 50.2345 52.3139V52.3139ZM43.0329 52.3139C42.9559 52.2352 42.908 52.1317 42.8973 52.021C42.8867 51.9103 42.9139 51.7992 42.9745 51.7067C43.035 51.6142 43.1251 51.546 43.2294 51.5137C43.3336 51.4814 43.4456 51.4869 43.5463 51.5295C43.647 51.572 43.7302 51.6488 43.7816 51.7469C43.833 51.845 43.8496 51.9582 43.8284 52.0674C43.8073 52.1765 43.7497 52.2748 43.6656 52.3454C43.5814 52.4161 43.4759 52.4548 43.3669 52.455C43.3049 52.455 43.2435 52.4426 43.1861 52.4184C43.1288 52.3942 43.0768 52.3587 43.0329 52.3139V52.3139ZM46.496 51.774C46.4962 51.6789 46.524 51.586 46.5759 51.5071C46.6278 51.4281 46.7015 51.3666 46.7876 51.3304C46.8737 51.2941 46.9684 51.2847 47.0597 51.3034C47.1511 51.3221 47.2349 51.368 47.3007 51.4353C47.3665 51.5026 47.4113 51.5883 47.4294 51.6816C47.4475 51.7749 47.4381 51.8715 47.4024 51.9594C47.3667 52.0472 47.3063 52.1223 47.2289 52.1751C47.1514 52.2279 47.0604 52.2561 46.9672 52.2561C46.9052 52.2561 46.8439 52.2436 46.7867 52.2194C46.7294 52.1951 46.6775 52.1596 46.6337 52.1148C46.5899 52.0701 46.5552 52.0169 46.5316 51.9584C46.508 51.9 46.4959 51.8373 46.496 51.774ZM51.1749 51.3488C51.0981 51.2702 51.0504 51.1669 51.0398 51.0564C51.0293 50.9459 51.0566 50.8351 51.1171 50.7428C51.1776 50.6506 51.2676 50.5826 51.3717 50.5505C51.4758 50.5183 51.5875 50.524 51.688 50.5665C51.7884 50.6091 51.8713 50.6859 51.9225 50.7838C51.9738 50.8817 51.9901 50.9948 51.9689 51.1036C51.9477 51.2125 51.8901 51.3105 51.8061 51.381C51.722 51.4514 51.6166 51.4899 51.5079 51.4899C51.446 51.4899 51.3847 51.4775 51.3276 51.4532C51.2705 51.429 51.2186 51.3936 51.1749 51.3488V51.3488ZM42.0926 51.3488C42.0155 51.2701 41.9676 51.1666 41.957 51.0559C41.9463 50.9452 41.9736 50.8341 42.0341 50.7416C42.0947 50.6491 42.1848 50.5809 42.289 50.5486C42.3933 50.5163 42.5053 50.5219 42.606 50.5644C42.7067 50.6069 42.7898 50.6838 42.8413 50.7818C42.8927 50.8799 42.9092 50.9932 42.8881 51.1023C42.8669 51.2114 42.8094 51.3097 42.7252 51.3804C42.6411 51.451 42.5355 51.4897 42.4265 51.4899C42.3645 51.4899 42.3031 51.4775 42.2458 51.4533C42.1885 51.4291 42.1364 51.3936 42.0926 51.3488V51.3488ZM46.496 50.4061C46.4962 50.311 46.524 50.2181 46.5759 50.1391C46.6278 50.0602 46.7015 49.9987 46.7876 49.9624C46.8737 49.9262 46.9684 49.9168 47.0597 49.9355C47.1511 49.9541 47.2349 50 47.3007 50.0673C47.3665 50.1346 47.4113 50.2204 47.4294 50.3136C47.4475 50.4069 47.4381 50.5036 47.4024 50.5914C47.3667 50.6792 47.3063 50.7543 47.2289 50.8071C47.1514 50.8599 47.0604 50.8881 46.9672 50.8881C46.8422 50.8881 46.7224 50.8374 46.634 50.7472C46.5457 50.657 46.496 50.5347 46.496 50.4071V50.4061ZM39.5379 50.3584C39.3087 50.1386 39.1485 49.8543 39.0775 49.5415C39.0066 49.2288 39.028 48.9016 39.1391 48.6012C39.2503 48.3009 39.4461 48.0409 39.7019 47.8542C39.9577 47.6675 40.262 47.5624 40.5764 47.5522C40.8907 47.542 41.2009 47.6271 41.4678 47.7969C41.7347 47.9666 41.9464 48.2133 42.076 48.5058C42.2056 48.7983 42.2474 49.1235 42.196 49.4403C42.1446 49.757 42.0024 50.0511 41.7874 50.2853C41.7755 50.2975 41.7635 50.3107 41.7516 50.3219C41.6025 50.4757 41.4252 50.5979 41.2297 50.6815C41.0342 50.7651 40.8244 50.8084 40.6125 50.809C40.4131 50.8099 40.2155 50.7706 40.0311 50.6932C39.8467 50.6159 39.6791 50.5021 39.5379 50.3584ZM52.1768 50.3219C51.9699 50.0965 51.8326 49.8138 51.782 49.5093C51.7314 49.2047 51.7697 48.8916 51.8923 48.6092C52.0148 48.3267 52.2161 48.0874 52.4711 47.921C52.726 47.7546 53.0233 47.6685 53.3259 47.6735C53.6285 47.6785 53.9229 47.7743 54.1724 47.949C54.422 48.1238 54.6156 48.3697 54.7291 48.656C54.8427 48.9424 54.8711 49.2565 54.8109 49.5593C54.7507 49.862 54.6045 50.1399 54.3905 50.3584C54.2493 50.5021 54.0817 50.6159 53.8973 50.6932C53.7129 50.7706 53.5153 50.8099 53.316 50.809C53.104 50.8084 52.8943 50.7651 52.6988 50.6815C52.5033 50.5979 52.3259 50.4757 52.1768 50.3219ZM46.4921 49.0493C46.4921 48.954 46.5198 48.8608 46.5716 48.7815C46.6235 48.7022 46.6973 48.6404 46.7835 48.604C46.8698 48.5675 46.9647 48.5579 47.0563 48.5765C47.1479 48.5951 47.2321 48.641 47.2981 48.7085C47.3641 48.7759 47.4091 48.8618 47.4273 48.9553C47.4455 49.0488 47.4362 49.1457 47.4004 49.2338C47.3647 49.3218 47.3042 49.3971 47.2265 49.4501C47.1489 49.5031 47.0576 49.5313 46.9642 49.5313V49.5313C46.8392 49.5311 46.7193 49.4802 46.631 49.3898C46.5427 49.2994 46.4931 49.177 46.4931 49.0493H46.4921ZM45.3271 46.3763C45.3271 46.0552 45.4204 45.7413 45.5951 45.4743C45.7699 45.2072 46.0183 44.9991 46.3089 44.8762C46.5995 44.7533 46.9193 44.7212 47.2278 44.7838C47.5363 44.8465 47.8197 45.0011 48.0421 45.2282C48.2645 45.4553 48.416 45.7446 48.4774 46.0596C48.5387 46.3745 48.5072 46.701 48.3869 46.9977C48.2665 47.2944 48.0626 47.548 47.8011 47.7264C47.5396 47.9048 47.2321 48 46.9175 48C46.4957 48 46.0912 47.8289 45.7929 47.5244C45.4946 47.2199 45.3271 46.8069 45.3271 46.3763ZM50.0546 47.4348C49.9776 47.3561 49.9297 47.2525 49.919 47.1418C49.9084 47.0311 49.9357 46.92 49.9962 46.8276C50.0567 46.7351 50.1468 46.6668 50.2511 46.6345C50.3554 46.6022 50.4674 46.6078 50.5681 46.6503C50.6688 46.6928 50.7519 46.7697 50.8033 46.8678C50.8548 46.9658 50.8713 47.0791 50.8501 47.1882C50.829 47.2973 50.7714 47.3956 50.6873 47.4663C50.6031 47.5369 50.4976 47.5757 50.3886 47.5758C50.3266 47.5758 50.2652 47.5634 50.2079 47.5392C50.1506 47.515 50.0985 47.4795 50.0546 47.4348V47.4348ZM43.1343 47.3972C43.0575 47.3186 43.0098 47.2152 42.9992 47.1047C42.9887 46.9943 43.016 46.8834 43.0765 46.7912C43.137 46.699 43.227 46.631 43.3311 46.5988C43.4352 46.5667 43.5469 46.5724 43.6474 46.6149C43.7478 46.6575 43.8307 46.7342 43.8819 46.8322C43.9332 46.9301 43.9496 47.0431 43.9283 47.152C43.9071 47.2609 43.8495 47.3589 43.7655 47.4293C43.6814 47.4997 43.576 47.5383 43.4673 47.5383C43.3424 47.5381 43.2226 47.4873 43.1343 47.3972V47.3972Z" fill="url(#paint0_linear_2_12)"/>
<path d="M112.642 68.8034H126.339C141.313 68.8034 147.436 59.5971 147.436 47.7199C147.436 42.5444 146.212 37.8885 143.206 34.0201C138.307 27.2575 130.848 26.746 125.727 26.746H112.642V68.8034ZM120.936 34.1987H126.836C131.846 34.1987 134.629 36.1269 136.355 38.4041C138.303 41.0182 139.138 44.5416 139.138 47.8417C139.138 55.3999 135.687 61.3669 126.781 61.3669H120.936V34.1987ZM165.635 68.8034H188.736V61.3588H173.925V51.1865H188.453V43.7378H173.929V34.1987H188.74V26.7501H165.639L165.635 68.8034ZM204.21 68.8034H213.507L223.081 52.6681L233.045 68.8034H242.508L228.258 46.8675L241.061 26.7501H231.705L223.415 40.5027L215.006 26.7501H205.602L218.516 46.697L204.21 68.8034ZM259.378 68.8034H281.199V61.3588H267.668V26.7542H259.374L259.378 68.8034ZM306.196 60.5632H322.451L325.456 68.8034H334.53L318.212 26.7501H310.92L294.221 68.8034H303.238L306.196 60.5632ZM320.224 53.8006H308.359L314.204 36.752L320.224 53.8006ZM351.11 68.8034H363.802C369.646 68.8034 372.263 68.4056 375.547 65.8483C378.441 63.8025 380 60.2222 380 56.4107C380 54.5921 379.722 48.6819 372.819 46.2951C375.937 44.5334 377.889 41.5256 377.889 37.6572C377.889 34.1906 376.664 31.1219 373.881 29.2465C371.766 27.5985 368.648 26.746 364.637 26.746H351.11V68.8034ZM359.404 34.1987H363.969C365.472 34.1987 366.696 34.3692 367.646 34.8238C368.815 35.3312 369.933 36.6424 369.933 38.8019C369.933 40.7909 369.209 42.1507 367.595 43.0072C366.537 43.4618 365.201 43.5755 364.032 43.5755H359.412L359.404 34.1987ZM359.404 50.6791H364.971C366.418 50.6791 367.809 50.6791 369.145 51.2474C370.815 51.9861 372.04 53.4637 372.04 55.9073C372.04 58.5783 370.76 59.999 369.09 60.7378C367.809 61.306 366.307 61.3629 365.249 61.3629H359.404V50.6791Z" fill="black"/>
<defs>
<linearGradient id="paint0_linear_2_12" x1="12.1578" y1="10.1277" x2="83.2787" y2="84.499" gradientUnits="userSpaceOnUse">
<stop stop-color="#4D2FE5"/>
<stop offset="0.53" stop-color="#D51FD5"/>
<stop offset="1" stop-color="#FB767C"/>
</linearGradient>
</defs>
</svg>
