<svg width="520" height="93" viewBox="0 0 520 93" fill="none" xmlns="http://www.w3.org/2000/svg">
<path fill-rule="evenodd" clip-rule="evenodd" d="M76.9143 55.6176C75.3705 56.577 73.5179 56.8968 72.2829 55.9374C70.4303 54.978 69.504 52.4196 69.504 49.2217V38.9882C69.504 34.1913 67.6514 30.6735 64.5638 29.7142C59.3148 28.1152 55.3008 34.8309 53.757 37.3892L44.4941 53.0592V33.8715C44.4941 29.3944 42.9503 26.836 40.4802 26.1964C38.6276 25.5568 36.1575 25.8766 33.6874 29.7142L13.0002 64.2521C10.2213 58.8155 8.67746 52.7394 8.67746 46.3435C8.67746 25.5568 24.7332 8.60767 44.4941 8.60767C64.255 8.60767 80.3107 25.8766 80.3107 46.6633C80.6195 50.8207 79.3844 54.0186 76.9143 55.6176ZM88.3386 46.6633C88.3386 21.0797 68.5777 0.612793 44.4941 0.612793C20.4105 0.612793 0.649597 21.3995 0.649597 46.6633C0.649597 71.9271 20.4105 92.7138 44.4941 92.7138C55.6096 92.7138 66.1076 88.2367 74.4442 80.2418C75.988 78.6428 76.2968 76.0845 74.753 74.1657C73.2091 72.5667 70.739 72.2469 69.1952 73.8459C62.7112 80.2418 53.757 84.0793 44.8029 84.0793C34.3049 84.0793 24.7332 79.2824 17.9404 71.6074L36.775 40.2674V54.6582C36.775 61.6937 39.2451 63.9323 41.4065 64.5718C43.5678 65.2114 46.9642 64.8917 50.3606 58.8155L60.5498 41.5466C60.8586 40.907 61.1673 40.5872 61.4761 39.9476V48.5821C61.4761 54.978 63.9462 60.0947 68.2689 62.6531C72.2829 64.8916 77.2231 64.8917 81.237 62.0135C86.1772 59.7749 88.6474 53.6988 88.3386 46.6633ZM149.474 30.9933C150.4 31.6329 151.326 33.2319 151.326 34.5111C151.326 36.7497 149.474 38.3486 147.621 38.3486C147.004 38.3486 146.695 38.3486 146.077 38.0289C143.607 36.1101 140.828 35.1507 137.741 35.1507C130.33 35.1507 125.39 41.2268 125.39 48.9019C125.39 56.577 130.33 62.6531 137.741 62.6531C141.446 62.6531 144.534 61.0541 147.004 58.8155C147.621 58.4957 148.548 58.1759 149.165 58.1759C151.018 58.1759 152.562 59.7749 152.562 62.0135C152.562 63.2927 151.635 64.5719 150.709 65.2114C147.313 68.4094 142.372 70.3282 137.432 70.3282C126.317 70.3282 117.054 60.7343 117.054 48.9019C117.054 37.0694 126.317 27.4756 137.432 27.4756C142.372 27.1558 146.386 28.435 149.474 30.9933ZM170.161 39.9476C177.88 39.9476 184.364 46.6633 184.364 54.978C184.364 63.2927 177.88 70.3282 170.161 70.3282C162.133 70.3282 155.34 63.2927 155.34 54.978C155.34 46.6633 162.133 39.9476 170.161 39.9476ZM170.161 62.6531C173.557 62.6531 176.336 59.4551 176.336 54.978C176.336 50.5009 173.557 47.6227 170.161 47.6227C166.456 47.6227 163.368 50.5009 163.368 54.978C163.368 59.4551 166.456 62.6531 170.161 62.6531ZM188.996 65.5312V44.4248C188.996 42.1862 190.848 40.2674 193.01 40.2674C195.171 40.2674 197.024 42.1862 197.024 44.4248V65.5312C197.024 67.7698 195.171 69.6886 193.01 69.6886C190.848 69.6886 188.996 67.7698 188.996 65.5312ZM188.378 32.2725C188.378 29.3944 190.539 27.4756 193.01 27.4756C195.48 27.4756 197.641 29.7142 197.641 32.2725C197.641 34.8309 195.48 37.0695 193.01 37.0695C190.539 37.0695 188.378 34.8309 188.378 32.2725ZM212.153 54.0186V65.5312C212.153 67.7698 210.3 69.6886 208.139 69.6886C205.978 69.6886 204.125 67.7698 204.125 65.5312V43.4654C204.125 41.5466 205.669 40.2674 207.213 40.2674C208.757 40.2674 210.3 41.8664 210.3 43.4654C213.388 40.2674 216.476 39.9476 218.946 39.9476C226.974 39.9476 230.37 46.0237 230.37 53.0592V65.5312C230.37 67.7698 228.517 69.6886 226.356 69.6886C224.195 69.6886 222.342 67.7698 222.342 65.5312V54.0186C222.342 50.5009 222.033 47.3029 216.784 47.3029C213.697 47.3029 212.153 50.5009 212.153 54.0186ZM256.615 58.4957C255.689 58.4957 255.071 58.1759 254.454 57.5364L245.191 46.9831V65.5312C245.191 67.7698 243.338 69.6886 241.177 69.6886C239.015 69.6886 237.163 67.7698 237.163 65.5312V28.7548C237.472 28.1152 238.089 27.7954 238.707 27.7954C239.324 27.7954 239.942 28.435 240.251 28.7548L255.071 46.0237C255.38 46.6633 255.997 46.9831 256.306 46.9831C256.615 46.9831 257.232 46.6633 257.541 46.0237L272.362 28.7548C272.671 28.435 273.288 27.7954 273.906 27.7954C274.523 27.7954 275.141 28.1152 275.45 28.7548V65.5312C275.45 67.7698 273.597 69.6886 271.436 69.6886C269.274 69.6886 267.422 67.7698 267.422 65.5312V46.9831L258.159 57.5364C257.85 57.8562 257.232 58.4957 256.615 58.4957ZM294.593 62.6531C298.298 62.6531 301.077 59.4551 301.077 54.978C301.077 50.5009 297.989 47.6227 294.593 47.6227C291.197 47.6227 288.418 50.5009 288.418 54.978C288.418 59.1353 291.197 62.6531 294.593 62.6531ZM303.238 66.4906V65.5312C301.695 68.7292 296.754 70.0084 293.667 70.0084C286.256 70.0084 280.699 62.9729 280.699 54.6582C280.699 46.3435 286.256 39.6278 293.975 39.6278C295.21 39.6278 299.842 39.9476 303.238 44.1049V43.1456C303.238 41.2268 304.473 39.9476 306.326 39.9476C307.87 39.9476 309.414 41.5466 309.414 43.1456V66.1708C309.414 68.0896 307.87 69.3688 306.326 69.3688C304.473 69.6886 303.238 68.4094 303.238 66.4906ZM331.336 47.3029H330.41C325.469 47.6227 324.543 50.5009 324.543 54.0186V65.5312C324.543 67.7698 322.69 69.6886 320.529 69.6886C318.368 69.6886 316.515 67.7698 316.515 65.5312V43.4654C316.515 41.5466 318.059 40.2674 319.603 40.2674C321.147 40.2674 322.69 41.8664 322.69 43.4654C325.778 40.5872 327.939 39.9476 330.41 39.9476H331.336C333.188 39.9476 335.041 41.5466 335.041 43.7852C334.732 45.7039 333.188 47.3029 331.336 47.3029ZM361.904 63.6125C362.212 64.2521 362.521 64.8916 362.521 65.5312C362.521 67.7698 360.668 69.6886 358.507 69.6886C356.963 69.6886 356.037 68.7292 355.111 67.45L345.848 56.577V65.5312C345.848 67.7698 343.995 69.6886 341.834 69.6886C339.673 69.6886 337.82 67.7698 337.82 65.5312V31.9527C337.82 29.7142 339.673 27.7954 341.834 27.7954C343.995 27.7954 345.848 29.7142 345.848 31.9527V53.0592L355.111 42.506C356.037 41.5466 357.272 40.2674 358.507 40.2674C360.36 40.2674 362.212 42.1862 362.212 44.4248C362.212 45.0643 362.212 45.7039 361.595 46.3435L354.493 54.6582L361.904 63.6125ZM377.342 47.6227C375.18 47.6227 371.784 48.9019 371.784 52.4196H383.208C383.208 48.5821 379.503 47.6227 377.342 47.6227ZM387.84 57.5364H371.784C371.784 62.3333 376.415 63.2927 378.268 63.2927C379.812 63.2927 381.973 62.9729 383.517 62.3333C384.135 62.0135 384.752 61.6937 385.678 61.6937C387.531 61.6937 388.766 63.2927 388.766 65.2114C388.766 66.4906 387.84 67.45 386.913 68.0896C384.443 70.0084 381.356 70.3282 378.268 70.3282C370.24 70.3282 363.447 65.851 363.447 55.2978C363.447 46.9831 367.461 39.9476 377.033 39.9476C384.752 39.9476 390.619 45.0643 390.619 54.3384C390.927 55.9374 389.692 57.5364 387.84 57.5364ZM410.071 70.0084H407.909C401.734 70.0084 398.338 67.1302 398.338 57.5364V47.3029H396.176C394.324 47.3029 392.471 45.3841 392.471 43.4654C392.471 41.2268 394.015 39.6278 396.176 39.6278H398.338V31.9527C398.338 29.7142 400.19 27.7954 402.352 27.7954C404.513 27.7954 406.366 29.7142 406.366 31.9527V39.6278H409.762C411.615 39.6278 413.467 41.2268 413.467 43.4654C413.467 45.3841 411.923 47.3029 409.762 47.3029H406.366V55.9374C406.366 61.6937 406.674 62.6531 409.144 62.6531H410.379C412.232 62.6531 413.776 64.252 413.776 66.4906C413.467 68.4094 411.923 70.0084 410.071 70.0084ZM448.357 30.9933C449.284 31.6329 450.21 33.2319 450.21 34.5111C450.21 36.7497 448.357 38.3486 446.505 38.3486C445.887 38.3486 445.579 38.3486 444.961 38.0289C442.491 36.1101 439.712 35.1507 436.624 35.1507C429.214 35.1507 424.274 41.2268 424.274 48.9019C424.274 56.577 429.214 62.6531 436.624 62.6531C440.33 62.6531 443.417 61.0541 445.887 58.8155C446.505 58.4957 447.431 58.1759 448.049 58.1759C449.901 58.1759 451.445 59.7749 451.445 62.0135C451.445 63.2927 450.519 64.5719 449.592 65.2114C446.196 68.4094 441.256 70.3282 436.316 70.3282C425.2 70.3282 415.937 60.7343 415.937 48.9019C415.937 37.0694 425.2 27.4756 436.316 27.4756C441.256 27.1558 445.27 28.435 448.357 30.9933ZM468.736 62.6531C472.441 62.6531 475.22 59.4551 475.22 54.978C475.22 50.5009 472.132 47.6227 468.736 47.6227C465.339 47.6227 462.561 50.5009 462.561 54.978C462.252 59.1353 465.031 62.6531 468.736 62.6531ZM477.073 66.4906V65.5312C475.529 68.7292 470.588 70.0084 467.501 70.0084C460.09 70.0084 454.533 62.9729 454.533 54.6582C454.533 46.3435 460.09 39.6278 467.81 39.6278C469.045 39.6278 473.676 39.9476 477.073 44.1049V43.1456C477.073 41.2268 478.308 39.9476 480.16 39.9476C481.704 39.9476 483.248 41.5466 483.248 43.1456V66.1708C483.248 68.0896 481.704 69.3688 480.16 69.3688C478.308 69.6886 477.073 68.4094 477.073 66.4906ZM505.17 62.6531C508.566 62.6531 511.345 59.1353 511.345 54.978C511.345 50.5009 508.566 47.6227 505.17 47.6227C501.774 47.6227 498.686 50.5009 498.686 54.978C498.377 59.4551 501.465 62.6531 505.17 62.6531ZM498.377 67.7698V78.323C498.377 80.5616 496.525 82.4804 494.363 82.4804C492.202 82.4804 490.349 80.5616 490.349 78.323V43.4654C490.349 41.5466 491.893 40.2674 493.437 40.2674C494.981 40.2674 496.525 41.8664 496.525 43.7852C499.612 40.5872 503.009 39.9476 505.788 39.9476C513.507 39.9476 519.064 46.6633 519.064 54.978C519.064 63.2927 513.507 70.3282 506.096 70.3282C503.935 70.0084 500.539 69.3688 498.377 67.7698Z" fill="black"/>
</svg>
