<svg width="645" height="96" viewBox="0 0 645 96" fill="none" xmlns="http://www.w3.org/2000/svg">
<path d="M107.53 75.6899L89.81 94.6899C89.4267 95.1026 88.9626 95.432 88.4464 95.6573C87.9303 95.8827 87.3732 95.9994 86.81 95.9999H2.81C2.40937 95.9997 2.01749 95.8827 1.68235 95.6631C1.34722 95.4436 1.08338 95.1311 0.923128 94.7639C0.762878 94.3967 0.713178 93.9908 0.780118 93.5958C0.847058 93.2008 1.02772 92.8338 1.3 92.5399L19 73.5399C19.3833 73.1273 19.8474 72.7979 20.3636 72.5725C20.8797 72.3472 21.4368 72.2305 22 72.2299H106C106.404 72.2216 106.802 72.333 107.143 72.5502C107.484 72.7674 107.754 73.0806 107.917 73.4504C108.081 73.8203 108.131 74.2303 108.062 74.6288C107.993 75.0273 107.808 75.3965 107.53 75.6899ZM89.81 37.4199C89.4253 37.0091 88.9608 36.6811 88.445 36.4558C87.9292 36.2306 87.3728 36.1129 86.81 36.11H2.81C2.40937 36.1102 2.01749 36.2272 1.68235 36.4468C1.34722 36.6663 1.08338 36.9788 0.923128 37.346C0.762878 37.7132 0.713178 38.1191 0.780118 38.5141C0.847058 38.9091 1.02772 39.2761 1.3 39.57L19 58.58C19.3847 58.9908 19.8492 59.3188 20.365 59.5441C20.8808 59.7693 21.4372 59.887 22 59.8899H106C106.4 59.8878 106.79 59.7693 107.124 59.5491C107.458 59.3288 107.72 59.0162 107.879 58.6494C108.038 58.2826 108.087 57.8774 108.019 57.4833C107.952 57.0892 107.772 56.7232 107.5 56.43L89.81 37.4199ZM2.81 23.7699H86.81C87.3732 23.7694 87.9303 23.6527 88.4464 23.4273C88.9626 23.202 89.4267 22.8726 89.81 22.4599L107.53 3.45995C107.808 3.16647 107.993 2.79726 108.062 2.39877C108.131 2.00028 108.081 1.59031 107.917 1.22045C107.754 0.850591 107.484 0.537368 107.143 0.320195C106.802 0.103021 106.404 -0.0084012 106 -5.10788e-05H22C21.4368 0.000541761 20.8797 0.117167 20.3636 0.342553C19.8474 0.567938 19.3833 0.897249 19 1.30995L1.3 20.3099C1.02772 20.6038 0.847058 20.9708 0.780118 21.3658C0.713178 21.7608 0.762878 22.1667 0.923128 22.5339C1.08338 22.9011 1.34722 23.2136 1.68235 23.4331C2.01749 23.6527 2.40937 23.7697 2.81 23.7699Z" fill="url(#paint0_linear_1_3)"/>
<path d="M209.94 40.6002H165V25.8002H221.62V11.0002H164.85C162.91 10.9897 160.988 11.3613 159.192 12.0938C157.396 12.8264 155.761 13.9055 154.383 15.2696C153.004 16.6337 151.907 18.2561 151.155 20.044C150.403 21.832 150.01 23.7506 150 25.6902V40.6902C150.008 42.6315 150.398 44.5523 151.149 46.3425C151.9 48.1328 152.996 49.7575 154.375 51.1237C155.755 52.49 157.39 53.5709 159.187 54.3047C160.984 55.0385 162.909 55.4108 164.85 55.4002H209.85V70.2002H151.07V85.0002H209.94C211.88 85.0108 213.802 84.6391 215.598 83.9066C217.394 83.174 219.029 82.0949 220.407 80.7308C221.786 79.3667 222.883 77.7444 223.635 75.9564C224.387 74.1684 224.78 72.2498 224.79 70.3102V55.3102C224.782 53.3689 224.392 51.4482 223.641 49.6579C222.89 47.8676 221.794 46.2429 220.415 44.8767C219.035 43.5105 217.4 42.4296 215.603 41.6958C213.806 40.962 211.881 40.5897 209.94 40.6002Z" fill="black"/>
<path d="M297 11H251.89C249.947 10.9842 248.02 11.3519 246.219 12.0821C244.419 12.8123 242.78 13.8905 241.397 15.2552C240.013 16.6198 238.913 18.2439 238.159 20.0345C237.404 21.8251 237.01 23.747 237 25.69V70.31C237.01 72.253 237.404 74.1749 238.159 75.9655C238.913 77.7561 240.013 79.3802 241.397 80.7448C242.78 82.1095 244.419 83.1877 246.219 83.9179C248.02 84.6481 249.947 85.0158 251.89 85H297C298.94 85.0105 300.862 84.6389 302.658 83.9064C304.454 83.1738 306.089 82.0947 307.467 80.7306C308.846 79.3665 309.943 77.7441 310.695 75.9562C311.447 74.1682 311.84 72.2496 311.85 70.31V25.69C311.84 23.7504 311.447 21.8318 310.695 20.0438C309.943 18.2559 308.846 16.6335 307.467 15.2694C306.089 13.9053 304.454 12.8262 302.658 12.0936C300.862 11.3611 298.94 10.9895 297 11ZM296.89 70.2H252V25.8H296.87L296.89 70.2Z" fill="black"/>
<path d="M455 11.0001H411C409.06 10.9896 407.138 11.3612 405.342 12.0937C403.546 12.8263 401.911 13.9054 400.533 15.2695C399.154 16.6336 398.057 18.256 397.305 20.0439C396.553 21.8319 396.16 23.7505 396.15 25.6901V85.0001H411.15V60.6901H454.95V85.0001H469.95V25.6901C469.94 23.742 469.544 21.8152 468.786 20.0206C468.027 18.2261 466.922 16.5993 465.532 15.2338C464.143 13.8684 462.497 12.7914 460.689 12.0648C458.881 11.3382 456.948 10.9764 455 11.0001ZM454.89 45.8901H411.09V25.8001H454.89V45.8901Z" fill="black"/>
<path d="M630.15 11.0002H586.15C584.21 10.9897 582.288 11.3613 580.492 12.0938C578.696 12.8264 577.062 13.9055 575.683 15.2696C574.304 16.6337 573.207 18.2561 572.455 20.044C571.703 21.832 571.31 23.7506 571.3 25.6902V85.0002H586.3V60.6902H630V85.0002H645V25.6902C644.99 23.7506 644.597 21.832 643.845 20.044C643.093 18.2561 641.996 16.6337 640.617 15.2696C639.238 13.9055 637.604 12.8264 635.808 12.0938C634.012 11.3613 632.09 10.9897 630.15 11.0002ZM630 45.8902H586.2V25.8002H630V45.8902Z" fill="black"/>
<path d="M543 70.2001H537L515.55 17.2001C514.815 15.3716 513.55 13.8045 511.918 12.6999C510.286 11.5952 508.361 11.0033 506.39 11.0001H493.08C491.786 10.9935 490.504 11.2418 489.307 11.7307C488.109 12.2197 487.02 12.9397 486.1 13.8497C485.181 14.7598 484.45 15.8419 483.949 17.0345C483.448 18.227 483.187 19.5066 483.18 20.8001V85.0001H498.18V25.8001H504.18L525.62 78.8001C526.367 80.6251 527.642 82.1858 529.281 83.283C530.919 84.3803 532.848 84.9641 534.82 84.9601H548.13C549.424 84.9667 550.706 84.7185 551.903 84.2295C553.101 83.7406 554.19 83.0205 555.11 82.1105C556.029 81.2005 556.76 80.1183 557.261 78.9258C557.762 77.7332 558.023 76.4537 558.03 75.1601V11.0001H543V70.2001Z" fill="black"/>
<path d="M340.1 11H325.1V70.31C325.11 72.2539 325.505 74.1766 326.26 75.9678C327.015 77.7591 328.116 79.3836 329.5 80.7484C330.884 82.1132 332.525 83.1912 334.326 83.9208C336.128 84.6504 338.056 85.0171 340 85H385V70.2H340.1V11Z" fill="black"/>
<defs>
<linearGradient id="paint0_linear_1_3" x1="9.81" y1="98.29" x2="97.89" y2="-1.01005" gradientUnits="userSpaceOnUse">
<stop offset="0.08" stop-color="#9945FF"/>
<stop offset="0.3" stop-color="#8752F3"/>
<stop offset="0.5" stop-color="#5497D5"/>
<stop offset="0.6" stop-color="#43B4CA"/>
<stop offset="0.72" stop-color="#28E0B9"/>
<stop offset="0.97" stop-color="#19FB9B"/>
</linearGradient>
</defs>
</svg>
