<svg width="2336" height="642" viewBox="0 0 2336 642" fill="none" xmlns="http://www.w3.org/2000/svg">
<g clip-path="url(#clip0_4_16)">
<path fill-rule="evenodd" clip-rule="evenodd" d="M802.9 396L774.1 346H732V396H707.2V245.8H781.9C791 245.7 800 248.2 807.8 252.9C815.6 257.6 822 264.3 826.3 272.4C830.6 280.5 832.5 289.6 832 298.7C831.5 307.8 828.5 316.7 823.3 324.2C817.9 332.2 810.3 338.4 801.4 342.1L832 396H802.9ZM781.8 271.3H732V321.2H781.9C785.2 321.2 788.4 320.5 791.4 319.2C794.4 317.9 797.1 316 799.3 313.6C802.7 310.1 805.1 305.7 806 300.8C806.9 296 806.4 291 804.6 286.4C802.7 281.9 799.6 278 795.5 275.2C791.4 272.4 786.7 270.9 781.8 270.9V271.3ZM1047.4 245.8L972.5 396H1000.3L1047.3 301.9L1094.2 396H1122L1047.4 245.8ZM1362.6 245.8H1330.9L1288.3 301.2L1245.9 245.8H1214.1L1276.5 325.9V396H1301.3V324.7L1362.6 245.8ZM1489.7 245.8H1539.4C1559.2 245.9 1578.1 253.9 1592 268C1606 282 1613.9 301.1 1614 320.9C1613.9 340.8 1606 359.8 1592 373.9C1578 388 1559.1 395.9 1539.3 396H1489.6V245.8H1489.7ZM1539.4 370.5C1552.6 370.5 1565.2 365.2 1574.5 355.8C1583.8 346.4 1589.1 333.7 1589.1 320.5C1588.9 307.3 1583.7 294.6 1574.4 285.3C1565.1 276 1552.5 270.6 1539.4 270.5H1514.3V370.5H1539.4ZM1779.9 245.8H1755.1V396H1779.9V245.8ZM2045.3 333.3C2045.4 341.6 2043.9 349.8 2040.7 357.4C2037.6 365 2032.9 371.9 2026.9 377.6C2018.2 386.4 2007.1 392.3 1995 394.7C1982.9 397.1 1970.4 395.9 1959 391.1C1947.6 386.4 1937.9 378.3 1931.1 368C1924.3 357.7 1920.7 345.6 1920.7 333.2V245.8H1945.5V333.2C1945.5 343.2 1949.4 352.7 1956.5 359.7C1963.5 366.7 1973 370.7 1982.9 370.7C1992.8 370.7 2002.3 366.7 2009.3 359.7C2016.3 352.7 2020.2 343.1 2020.2 333.2V245.8H2045.2V333.3H2045.3ZM2211 396V306.2L2261 356.3L2310.8 306.2V396H2336V245.8L2261 320.9L2186.3 245.8V396H2211Z" fill="#193650"/>
<path d="M522.9 241.1V464.4L275.8 607.8L28.6 464.4V177.6L275.9 33.9998L465.8 144.3L494.5 127.7L275.9 0.799805L0 160.9V481L275.9 641.1L551.8 481V224.5L522.9 241.1Z" fill="url(#paint0_linear_4_16)"/>
<path d="M206.7 464.6H165.4V325.2H303.2C316.2 325.1 328.7 319.8 337.9 310.4C347.1 301.1 352.2 288.5 352.3 275.4C352.4 268.9 351.1 262.5 348.6 256.5C346.1 250.5 342.4 245.1 337.8 240.6C333.3 236 327.9 232.3 322 229.8C316.1 227.3 309.7 226 303.2 226.1H165.4V183.7H303.3C327.4 183.8 350.6 193.6 367.6 210.7C384.7 227.9 394.3 251.1 394.5 275.4C394.6 294 389 312.1 378.4 327.3C368.6 341.8 354.8 353.2 338.7 360C322.7 365.1 306.1 367.6 289.4 367.5H206.7V464.6V464.6Z" fill="url(#paint1_linear_4_16)"/>
<path d="M393.5 461.1H345.3L308.1 395.9C322.8 395 337.3 392 351.2 387L393.5 461.1Z" fill="url(#paint2_linear_4_16)"/>
<path d="M494.1 194.7L522.6 210.6L551.1 194.7V161L522.6 144.4L494.1 161V194.7Z" fill="url(#paint3_linear_4_16)"/>
</g>
<defs>
<linearGradient id="paint0_linear_4_16" x1="568.529" y1="204.585" x2="-17.3054" y2="437.612" gradientUnits="userSpaceOnUse">
<stop stop-color="#C200FB"/>
<stop offset="0.4897" stop-color="#3772FF"/>
<stop offset="0.4898" stop-color="#3773FE"/>
<stop offset="1" stop-color="#5AC4BE"/>
</linearGradient>
<linearGradient id="paint1_linear_4_16" x1="557.349" y1="176.481" x2="-28.4839" y2="409.509" gradientUnits="userSpaceOnUse">
<stop stop-color="#C200FB"/>
<stop offset="0.4897" stop-color="#3772FF"/>
<stop offset="0.4898" stop-color="#3773FE"/>
<stop offset="1" stop-color="#5AC4BE"/>
</linearGradient>
<linearGradient id="paint2_linear_4_16" x1="615.685" y1="323.143" x2="29.8519" y2="556.171" gradientUnits="userSpaceOnUse">
<stop stop-color="#C200FB"/>
<stop offset="0.4897" stop-color="#3772FF"/>
<stop offset="0.4898" stop-color="#3773FE"/>
<stop offset="1" stop-color="#5AC4BE"/>
</linearGradient>
<linearGradient id="paint3_linear_4_16" x1="552.937" y1="165.504" x2="-32.8947" y2="398.532" gradientUnits="userSpaceOnUse">
<stop stop-color="#C200FB"/>
<stop offset="0.4897" stop-color="#3772FF"/>
<stop offset="0.4898" stop-color="#3773FE"/>
<stop offset="1" stop-color="#5AC4BE"/>
</linearGradient>
<clipPath id="clip0_4_16">
<rect width="2336" height="642" fill="white"/>
</clipPath>
</defs>
</svg>
